<svg width="316" height="61" viewBox="0 0 316 61" fill="none" xmlns="http://www.w3.org/2000/svg">
<rect width="316" height="61" fill="white"/>
<circle cx="31" cy="30" r="20" fill="#F5BD41"/>
<circle cx="30.9998" cy="30.0001" r="12.6761" fill="white"/>
<circle cx="30.9997" cy="30" r="4.50704" fill="#F5BD41"/>
<path d="M71.0469 40.5605C68.1667 40.5605 65.9655 39.7767 64.4434 38.209C62.4017 36.2858 61.3809 33.515 61.3809 29.8965C61.3809 26.2051 62.4017 23.4342 64.4434 21.584C65.9655 20.0163 68.1667 19.2324 71.0469 19.2324C73.9271 19.2324 76.1283 20.0163 77.6504 21.584C79.6829 23.4342 80.6992 26.2051 80.6992 29.8965C80.6992 33.515 79.6829 36.2858 77.6504 38.209C76.1283 39.7767 73.9271 40.5605 71.0469 40.5605ZM75.0254 35.1465C76.0007 33.916 76.4883 32.166 76.4883 29.8965C76.4883 27.6361 75.9961 25.8906 75.0117 24.6602C74.0365 23.4206 72.7148 22.8008 71.0469 22.8008C69.3789 22.8008 68.0482 23.416 67.0547 24.6465C66.0612 25.877 65.5645 27.627 65.5645 29.8965C65.5645 32.166 66.0612 33.916 67.0547 35.1465C68.0482 36.377 69.3789 36.9922 71.0469 36.9922C72.7148 36.9922 74.041 36.377 75.0254 35.1465ZM90.625 27.9824C89.3034 27.9824 88.3965 28.543 87.9043 29.6641C87.6491 30.2565 87.5215 31.013 87.5215 31.9336V40H83.6387V25.125H87.3984V27.2988C87.8997 26.5332 88.3737 25.9818 88.8203 25.6445C89.6224 25.043 90.6387 24.7422 91.8691 24.7422C93.4095 24.7422 94.6673 25.1478 95.6426 25.959C96.627 26.7611 97.1191 28.0964 97.1191 29.9648V40H93.127V30.9355C93.127 30.1517 93.0221 29.5501 92.8125 29.1309C92.4297 28.3652 91.7005 27.9824 90.625 27.9824ZM113.621 30.4434H109.629C109.556 29.8874 109.369 29.3861 109.068 28.9395C108.631 28.3379 107.952 28.0371 107.031 28.0371C105.719 28.0371 104.821 28.6888 104.338 29.9922C104.083 30.6849 103.955 31.6055 103.955 32.7539C103.955 33.8477 104.083 34.7272 104.338 35.3926C104.803 36.6322 105.678 37.252 106.963 37.252C107.874 37.252 108.521 37.0059 108.904 36.5137C109.287 36.0215 109.52 35.3835 109.602 34.5996H113.58C113.489 35.7845 113.061 36.9056 112.295 37.9629C111.074 39.6673 109.264 40.5195 106.867 40.5195C104.47 40.5195 102.706 39.8086 101.576 38.3867C100.446 36.9648 99.8809 35.1191 99.8809 32.8496C99.8809 30.2884 100.505 28.2969 101.754 26.875C103.003 25.4531 104.725 24.7422 106.922 24.7422C108.79 24.7422 110.317 25.1615 111.502 26C112.696 26.8385 113.402 28.3197 113.621 30.4434ZM129.781 31.25V40H125.803V30.9355C125.803 30.1335 125.666 29.4863 125.393 28.9941C125.037 28.3014 124.363 27.9551 123.369 27.9551C122.339 27.9551 121.555 28.3014 121.018 28.9941C120.489 29.6777 120.225 30.6576 120.225 31.9336V40H116.342V19.916H120.225V27.0391C120.79 26.1732 121.441 25.5716 122.18 25.2344C122.927 24.888 123.711 24.7148 124.531 24.7148C125.452 24.7148 126.286 24.8743 127.033 25.1934C127.79 25.5124 128.41 26 128.893 26.6562C129.303 27.2122 129.553 27.7865 129.645 28.3789C129.736 28.9622 129.781 29.9193 129.781 31.25ZM133.992 26.7109C135.022 25.3984 136.79 24.7422 139.297 24.7422C140.928 24.7422 142.378 25.0658 143.645 25.7129C144.911 26.36 145.545 27.5814 145.545 29.377V36.2129C145.545 36.6868 145.554 37.2611 145.572 37.9355C145.6 38.446 145.677 38.7923 145.805 38.9746C145.932 39.1569 146.124 39.3073 146.379 39.4258V40H142.141C142.022 39.6992 141.94 39.4167 141.895 39.1523C141.849 38.888 141.812 38.5872 141.785 38.25C141.247 38.8333 140.628 39.3301 139.926 39.7402C139.087 40.2233 138.139 40.4648 137.082 40.4648C135.733 40.4648 134.617 40.082 133.732 39.3164C132.857 38.5417 132.42 37.4479 132.42 36.0352C132.42 34.2031 133.126 32.877 134.539 32.0566C135.314 31.61 136.453 31.291 137.957 31.0996L139.283 30.9355C140.003 30.8444 140.518 30.7305 140.828 30.5938C141.384 30.3568 141.662 29.9876 141.662 29.4863C141.662 28.8757 141.448 28.4564 141.02 28.2285C140.6 27.9915 139.98 27.873 139.16 27.873C138.24 27.873 137.588 28.1009 137.205 28.5566C136.932 28.8939 136.749 29.3496 136.658 29.9238H132.898C132.98 28.6204 133.345 27.5495 133.992 26.7109ZM136.891 37.1836C137.255 37.4844 137.702 37.6348 138.23 37.6348C139.069 37.6348 139.839 37.3887 140.541 36.8965C141.252 36.4043 141.621 35.5065 141.648 34.2031V32.7539C141.402 32.9089 141.152 33.0365 140.896 33.1367C140.65 33.2279 140.309 33.3145 139.871 33.3965L138.996 33.5605C138.176 33.7064 137.588 33.8841 137.232 34.0938C136.631 34.4492 136.33 35.0007 136.33 35.748C136.33 36.4134 136.517 36.8919 136.891 37.1836ZM153.023 25.0977V40H149.072V25.0977H153.023ZM153.023 19.7246V23.3203H149.072V19.7246H153.023ZM163.824 27.9824C162.503 27.9824 161.596 28.543 161.104 29.6641C160.848 30.2565 160.721 31.013 160.721 31.9336V40H156.838V25.125H160.598V27.2988C161.099 26.5332 161.573 25.9818 162.02 25.6445C162.822 25.043 163.838 24.7422 165.068 24.7422C166.609 24.7422 167.867 25.1478 168.842 25.959C169.826 26.7611 170.318 28.0964 170.318 29.9648V40H166.326V30.9355C166.326 30.1517 166.221 29.5501 166.012 29.1309C165.629 28.3652 164.9 27.9824 163.824 27.9824ZM188.529 23.416H178.426V28.0508H187.271V31.5508H178.426V40H174.242V19.875H188.529V23.416ZM200.602 37.8945C200.565 37.9401 200.474 38.0768 200.328 38.3047C200.182 38.5326 200.009 38.7331 199.809 38.9062C199.198 39.4531 198.605 39.8268 198.031 40.0273C197.466 40.2279 196.801 40.3281 196.035 40.3281C193.829 40.3281 192.344 39.5352 191.578 37.9492C191.15 37.0742 190.936 35.7845 190.936 34.0801V25.0977H194.928V34.0801C194.928 34.9277 195.028 35.5658 195.229 35.9941C195.584 36.7507 196.281 37.1289 197.32 37.1289C198.651 37.1289 199.562 36.5911 200.055 35.5156C200.31 34.9323 200.438 34.1621 200.438 33.2051V25.0977H204.389V40H200.602V37.8945ZM215.176 27.9824C213.854 27.9824 212.947 28.543 212.455 29.6641C212.2 30.2565 212.072 31.013 212.072 31.9336V40H208.189V25.125H211.949V27.2988C212.451 26.5332 212.924 25.9818 213.371 25.6445C214.173 25.043 215.189 24.7422 216.42 24.7422C217.96 24.7422 219.218 25.1478 220.193 25.959C221.178 26.7611 221.67 28.0964 221.67 29.9648V40H217.678V30.9355C217.678 30.1517 217.573 29.5501 217.363 29.1309C216.98 28.3652 216.251 27.9824 215.176 27.9824ZM238.842 19.875V40H235.055V37.9355C234.499 38.8197 233.865 39.4622 233.154 39.8633C232.443 40.2643 231.559 40.4648 230.502 40.4648C228.761 40.4648 227.294 39.763 226.1 38.3594C224.915 36.9466 224.322 35.1374 224.322 32.9316C224.322 30.3887 224.906 28.388 226.072 26.9297C227.248 25.4714 228.816 24.7422 230.775 24.7422C231.678 24.7422 232.48 24.9427 233.182 25.3438C233.883 25.7357 234.453 26.2826 234.891 26.9844V19.875H238.842ZM228.342 32.6445C228.342 34.0208 228.615 35.1191 229.162 35.9395C229.7 36.7689 230.52 37.1836 231.623 37.1836C232.726 37.1836 233.564 36.7734 234.139 35.9531C234.713 35.1328 235 34.071 235 32.7676C235 30.9447 234.54 29.6413 233.619 28.8574C233.054 28.3835 232.398 28.1465 231.65 28.1465C230.511 28.1465 229.673 28.5794 229.135 29.4453C228.606 30.3021 228.342 31.3685 228.342 32.6445ZM246.402 25.0977V40H242.451V25.0977H246.402ZM246.402 19.7246V23.3203H242.451V19.7246H246.402ZM257.203 27.9824C255.882 27.9824 254.975 28.543 254.482 29.6641C254.227 30.2565 254.1 31.013 254.1 31.9336V40H250.217V25.125H253.977V27.2988C254.478 26.5332 254.952 25.9818 255.398 25.6445C256.201 25.043 257.217 24.7422 258.447 24.7422C259.988 24.7422 261.245 25.1478 262.221 25.959C263.205 26.7611 263.697 28.0964 263.697 29.9648V40H259.705V30.9355C259.705 30.1517 259.6 29.5501 259.391 29.1309C259.008 28.3652 258.279 27.9824 257.203 27.9824ZM271.518 42.6113C271.937 42.9668 272.643 43.1445 273.637 43.1445C275.04 43.1445 275.979 42.6751 276.453 41.7363C276.763 41.1348 276.918 40.123 276.918 38.7012V37.7441C276.544 38.3822 276.143 38.8607 275.715 39.1797C274.94 39.7721 273.933 40.0684 272.693 40.0684C270.779 40.0684 269.248 39.3984 268.1 38.0586C266.96 36.7096 266.391 34.8867 266.391 32.5898C266.391 30.375 266.942 28.5156 268.045 27.0117C269.148 25.4987 270.711 24.7422 272.734 24.7422C273.482 24.7422 274.133 24.8561 274.689 25.084C275.637 25.4759 276.403 26.196 276.986 27.2441V25.0977H280.773V39.2344C280.773 41.1576 280.45 42.6068 279.803 43.582C278.691 45.2591 276.558 46.0977 273.404 46.0977C271.499 46.0977 269.945 45.724 268.742 44.9766C267.539 44.2292 266.874 43.1126 266.746 41.627H270.984C271.094 42.0827 271.271 42.4108 271.518 42.6113ZM270.861 34.9141C271.39 36.1719 272.338 36.8008 273.705 36.8008C274.617 36.8008 275.387 36.459 276.016 35.7754C276.645 35.0827 276.959 33.9844 276.959 32.4805C276.959 31.0677 276.658 29.9922 276.057 29.2539C275.464 28.5156 274.667 28.1465 273.664 28.1465C272.297 28.1465 271.354 28.7891 270.834 30.0742C270.561 30.7578 270.424 31.6009 270.424 32.6035C270.424 33.4694 270.57 34.2396 270.861 34.9141Z" fill="#3A3E45"/>
</svg>
